<?xml version="1.0" encoding="UTF-8" standalone="no"?>
<!-- Created with Inkscape (http://www.inkscape.org/) -->

<svg
   xmlns:dc="http://purl.org/dc/elements/1.1/"
   xmlns:cc="http://creativecommons.org/ns#"
   xmlns:rdf="http://www.w3.org/1999/02/22-rdf-syntax-ns#"
   xmlns:svg="http://www.w3.org/2000/svg"
   xmlns="http://www.w3.org/2000/svg"
   xmlns:sodipodi="http://sodipodi.sourceforge.net/DTD/sodipodi-0.dtd"
   xmlns:inkscape="http://www.inkscape.org/namespaces/inkscape"
   width="32"
   height="32"
   id="svg2"
   version="1.1"
   inkscape:version="0.48.5 r10040"
   sodipodi:docname="itwew.svg"
   inkscape:export-filename="/Users/eddieantonio/Downloads/itwew.png"
   inkscape:export-xdpi="90"
   inkscape:export-ydpi="90">
  <defs
     id="defs4" />
  <sodipodi:namedview
     id="base"
     pagecolor="#ffffff"
     bordercolor="#666666"
     borderopacity="1.0"
     inkscape:pageopacity="0.0"
     inkscape:pageshadow="2"
     inkscape:zoom="15.839192"
     inkscape:cx="17.302547"
     inkscape:cy="10.483637"
     inkscape:document-units="px"
     inkscape:current-layer="layer2"
     showgrid="true"
     inkscape:window-width="1895"
     inkscape:window-height="1157"
     inkscape:window-x="15"
     inkscape:window-y="7"
     inkscape:window-maximized="0">
    <inkscape:grid
       type="xygrid"
       id="grid2985"
       empspacing="8"
       visible="true"
       enabled="true"
       snapvisiblegridlinesonly="true" />
  </sodipodi:namedview>
  <metadata
     id="metadata7">
    <rdf:RDF>
      <cc:Work
         rdf:about="">
        <dc:format>image/svg+xml</dc:format>
        <dc:type
           rdf:resource="http://purl.org/dc/dcmitype/StillImage" />
        <dc:title></dc:title>
      </cc:Work>
    </rdf:RDF>
  </metadata>
  <g
     inkscape:label="Capa 1"
     inkscape:groupmode="layer"
     id="layer1"
     transform="translate(0,-1020.3622)"
     style="display:none">
    <text
       xml:space="preserve"
       style="font-size:15.62737465px;font-style:normal;font-variant:normal;font-weight:bold;font-stretch:normal;text-align:start;line-height:100%;letter-spacing:0px;word-spacing:0px;writing-mode:lr-tb;text-anchor:start;fill:#000000;fill-opacity:1;stroke:none;font-family:Euphemia UCAS;-inkscape-font-specification:Euphemia UCAS Bold"
       x="-465.92816"
       y="939.60681"
       id="text2987"
       sodipodi:linespacing="100%"
       transform="matrix(0.89560705,-0.44484606,0.44484606,0.89560705,0,0)"><tspan
         sodipodi:role="line"
         id="tspan2989"
         x="-465.92816"
         y="939.60681">ᐃᑘᐤ</tspan></text>
  </g>
  <g
     inkscape:groupmode="layer"
     id="layer2"
     inkscape:label="Capa">
    <g
       transform="matrix(0.90191903,-0.46732633,0.4479812,0.94086649,0.02321798,-1073.5355)"
       style="font-size:15.62737465000000014px;font-style:normal;font-variant:normal;font-weight:bold;font-stretch:normal;text-align:start;line-height:100%;letter-spacing:0px;word-spacing:0px;writing-mode:lr-tb;text-anchor:start;fill:#081011;fill-opacity:1;stroke:none;font-family:Euphemia UCAS;-inkscape-font-specification:Euphemia UCAS Bold"
       id="text3759">
      <path
         d="m -452.81887,939.15661 0,0.4502 -12.57515,0 0,-0.4502 5.845,-11.6137 1.06065,0 5.6695,11.6137 m -9.11851,-1.41928 5.66187,0 0,-0.26707 -2.73937,-6.78357 -0.13735,0 -2.78515,6.78357 0,0.26707"
         id="path3767"
         inkscape:connector-curvature="0"
         style="fill:#081011;fill-opacity:1" />
      <path
         d="m -439.20672,933.06047 c -10e-6,-0.28996 0.10427,-0.55448 0.31286,-0.79358 0.20855,-0.23908 0.48071,-0.35863 0.81647,-0.35864 0.34081,1e-5 0.61805,0.11956 0.83173,0.35864 0.21364,0.23401 0.32046,0.49854 0.32048,0.79358 -2e-5,0.27979 -0.10684,0.53923 -0.32048,0.77831 -0.21368,0.23401 -0.49092,0.35101 -0.83173,0.35101 -0.3205,0 -0.59012,-0.11191 -0.80884,-0.33574 -0.21367,-0.22892 -0.3205,-0.49344 -0.32049,-0.79358 m -1.15984,-5.70766 0,2.26628 c 0,3.82545 -0.45276,6.43001 -1.35824,7.81369 -0.90042,1.37858 -2.39855,2.06788 -4.4944,2.06788 -2.16199,0 -3.68556,-0.7071 -4.5707,-2.1213 -0.88006,-1.41419 -1.32008,-4.00603 -1.32008,-7.77553 l 0,-2.25102 2.0984,0 0,2.00684 c 0,3.78476 0.31794,6.11716 0.95382,6.99722 0.64096,0.87497 1.58206,1.31245 2.8233,1.31245 1.23106,0 2.16707,-0.45529 2.80805,-1.36587 0.64095,-0.91566 0.96145,-3.24043 0.96145,-6.97432 l 0,-1.97632 2.0984,0"
         id="path3769"
         inkscape:connector-curvature="0"
         sodipodi:nodetypes="ccccccscccscscsccscscscc"
         style="fill:#081011;fill-opacity:1" />
      <path
         d="m -435.91032,933.67854 c 0,-0.76813 0.2747,-1.45488 0.8241,-2.06025 0.55449,-0.61043 1.29974,-0.91565 2.23576,-0.91566 1.0174,10e-6 1.783,0.31031 2.29679,0.93092 0.51379,0.62063 0.77068,1.30229 0.77069,2.04499 -10e-6,0.82919 -0.2798,1.53375 -0.83936,2.11367 -0.55958,0.57992 -1.30229,0.86988 -2.22812,0.86988 -0.92585,0 -1.66855,-0.28996 -2.22813,-0.86988 -0.55448,-0.57992 -0.83173,-1.28448 -0.83173,-2.11367 m 1.73977,0.0458 c 0,0.45275 0.12463,0.80121 0.3739,1.04538 0.25435,0.24418 0.57483,0.36627 0.96145,0.36627 0.39678,0 0.71472,-0.12972 0.95382,-0.38916 0.23908,-0.25943 0.35863,-0.60026 0.35863,-1.02249 0,-0.47309 -0.11955,-0.83936 -0.35863,-1.0988 -0.2391,-0.26452 -0.55704,-0.39679 -0.95382,-0.39679 -0.41206,0 -0.73763,0.12972 -0.97671,0.38916 -0.2391,0.25435 -0.35864,0.62316 -0.35864,1.10643"
         id="path3771"
         inkscape:connector-curvature="0"
         sodipodi:nodetypes="ccccccsccccscscscc"
         style="fill:#081011;fill-opacity:1" />
    </g>
  </g>
</svg>
